<svg width="150" height="151" viewBox="0 0 150 151" fill="none" xmlns="http://www.w3.org/2000/svg">
<path d="M109.131 68.5284L52.8785 21.6514C50.9662 20.0696 48.505 19.31 46.0338 19.5391C43.5627 19.7681 41.283 20.9671 39.694 22.8734C38.105 24.7797 37.3362 27.238 37.5559 29.71C37.7756 32.182 38.966 34.4662 40.8663 36.0623L88.4756 75.7342L40.8663 115.406C38.9586 117 37.7617 119.286 37.5384 121.762C37.3151 124.238 38.0838 126.701 39.6754 128.611C41.2671 130.52 43.5517 131.72 46.0272 131.946C48.5028 132.172 50.967 131.407 52.8785 129.817L109.131 82.9394C110.186 82.0581 111.034 80.9561 111.616 79.7111C112.198 78.466 112.5 77.1083 112.5 75.7339C112.5 74.3595 112.198 73.0018 111.616 71.7567C111.034 70.5117 110.186 69.4096 109.131 68.5284Z" fill="white"/>
</svg>
