<svg width="440" height="440" viewBox="0 0 440 440" fill="none" xmlns="http://www.w3.org/2000/svg">
<path d="M440 336.512H0V336.732H440V336.512Z" fill="#EBEBEB"/>
<path d="M144.839 350.082H115.694V350.302H144.839V350.082Z" fill="#EBEBEB"/>
<path d="M227.779 347.697H220.132V347.917H227.779V347.697Z" fill="#EBEBEB"/>
<path d="M63.052 343.983H46.1648V344.203H63.052V343.983Z" fill="#EBEBEB"/>
<path d="M365.886 342.505H342.936V342.725H365.886V342.505Z" fill="#EBEBEB"/>
<path d="M335.095 342.505H314.468V342.725H335.095V342.505Z" fill="#EBEBEB"/>
<path d="M395.921 353.065H313.482V353.285H395.921V353.065Z" fill="#EBEBEB"/>
<path d="M208.56 297.264H38.6408C37.3097 297.262 36.0339 296.731 35.0934 295.789C34.153 294.847 33.6248 293.57 33.6248 292.239V53.3808C33.6364 52.0573 34.1697 50.7918 35.1089 49.8592C36.0481 48.9266 37.3173 48.4023 38.6408 48.4H208.56C209.893 48.4 211.171 48.9294 212.113 49.8717C213.055 50.8141 213.585 52.0921 213.585 53.4248V292.239C213.585 293.572 213.055 294.85 212.113 295.792C211.171 296.735 209.893 297.264 208.56 297.264ZM38.6408 48.576C37.368 48.5783 36.1482 49.0856 35.249 49.9864C34.3498 50.8872 33.8448 52.108 33.8448 53.3808V292.239C33.8448 293.512 34.3498 294.733 35.249 295.634C36.1482 296.534 37.368 297.042 38.6408 297.044H208.56C209.834 297.042 211.054 296.535 211.955 295.634C212.856 294.734 213.363 293.513 213.365 292.239V53.3808C213.363 52.1072 212.856 50.8864 211.955 49.9859C211.054 49.0853 209.834 48.5783 208.56 48.576H38.6408Z" fill="#EBEBEB"/>
<path d="M398.913 297.264H228.985C227.653 297.262 226.376 296.732 225.434 295.79C224.493 294.848 223.962 293.571 223.96 292.239V53.3808C223.974 52.0565 224.509 50.791 225.45 49.8587C226.39 48.9263 227.66 48.4022 228.985 48.4H398.913C400.235 48.4046 401.502 48.93 402.439 49.8623C403.376 50.7947 403.908 52.0588 403.92 53.3808V292.239C403.92 293.569 403.393 294.844 402.455 295.786C401.516 296.728 400.242 297.259 398.913 297.264ZM228.985 48.576C227.711 48.5783 226.49 49.0853 225.59 49.9859C224.689 50.8864 224.182 52.1072 224.18 53.3808V292.239C224.182 293.513 224.689 294.734 225.59 295.634C226.49 296.535 227.711 297.042 228.985 297.044H398.913C400.186 297.042 401.407 296.535 402.308 295.634C403.208 294.734 403.715 293.513 403.718 292.239V53.3808C403.715 52.1072 403.208 50.8864 402.308 49.9859C401.407 49.0853 400.186 48.5783 398.913 48.576H228.985Z" fill="#EBEBEB"/>
<path d="M280.368 333.89H301.092V243.214H280.368V333.89Z" fill="#F0F0F0"/>
<path d="M205.876 336.512H297.123V333.89H205.876V336.512Z" fill="#F0F0F0"/>
<path d="M280.368 243.214H201.89V333.89H280.368V243.214Z" fill="#F5F5F5"/>
<path d="M272.219 248.301H210.038V286.528H272.219V248.301Z" fill="#F0F0F0"/>
<path d="M272.219 290.576H210.038V328.803H272.219V290.576Z" fill="#F0F0F0"/>
<path d="M257.25 254.962H225.016C224.008 254.964 223.01 254.766 222.079 254.38C221.148 253.994 220.302 253.427 219.59 252.713C218.879 251.999 218.316 251.152 217.933 250.219C217.55 249.287 217.355 248.288 217.36 247.28H264.88C264.885 248.286 264.691 249.283 264.31 250.213C263.929 251.144 263.368 251.99 262.659 252.704C261.95 253.418 261.108 253.984 260.18 254.372C259.252 254.759 258.256 254.96 257.25 254.962Z" fill="#F5F5F5"/>
<path d="M257.25 297.238H225.016C222.988 297.238 221.043 296.432 219.609 294.998C218.174 293.564 217.369 291.619 217.369 289.59H264.889C264.889 291.617 264.084 293.561 262.652 294.995C261.22 296.429 259.277 297.235 257.25 297.238Z" fill="#F5F5F5"/>
<path d="M365.006 333.89H385.73V243.214H365.006V333.89Z" fill="#F0F0F0"/>
<path d="M290.506 336.512H381.753V333.89H290.506V336.512Z" fill="#F0F0F0"/>
<path d="M365.006 243.214H286.528V333.89H365.006V243.214Z" fill="#F5F5F5"/>
<path d="M356.858 248.301H294.677V286.528H356.858V248.301Z" fill="#F0F0F0"/>
<path d="M356.858 290.576H294.677V328.803H356.858V290.576Z" fill="#F0F0F0"/>
<path d="M341.88 254.962H309.646C307.617 254.962 305.672 254.157 304.238 252.723C302.804 251.288 301.998 249.343 301.998 247.315H349.518C349.518 249.342 348.714 251.286 347.282 252.719C345.849 254.153 343.907 254.96 341.88 254.962Z" fill="#F5F5F5"/>
<path d="M341.88 297.238H309.646C307.617 297.238 305.672 296.432 304.238 294.998C302.804 293.564 301.998 291.619 301.998 289.59H349.518C349.518 291.617 348.714 293.561 347.282 294.995C345.849 296.429 343.907 297.235 341.88 297.238Z" fill="#F5F5F5"/>
<path d="M98.0496 121.387H133.549V80.3528H98.0496V121.387Z" fill="#E6E6E6"/>
<path d="M94.0016 121.387H132.598V80.3528H94.0016V121.387Z" fill="#F5F5F5"/>
<path d="M129.36 118.158V83.5912H97.2312V118.158H129.36Z" fill="white"/>
<path d="M121.581 109.78V108.522C121.578 104.132 119.834 99.9233 116.73 96.8196C113.626 93.7158 109.417 91.9711 105.028 91.9688V93.2272C105.028 97.6173 106.772 101.828 109.876 104.932C112.98 108.036 117.191 109.78 121.581 109.78Z" fill="#F5F5F5"/>
<path d="M252.243 198.836L385.739 198.836V73.964L252.243 73.964L252.243 198.836Z" fill="#E6E6E6"/>
<path d="M248.107 198.836L383.803 198.836V73.964L248.107 73.964L248.107 198.836Z" fill="#F0F0F0"/>
<path d="M252.243 203.289L385.739 203.289V198.836L252.243 198.836V203.289Z" fill="#E6E6E6"/>
<path d="M241.208 203.289L376.904 203.289V198.836L241.208 198.836V203.289Z" fill="#F0F0F0"/>
<path d="M378.004 192.13V80.6696L253.889 80.6696V192.13H378.004Z" fill="#FAFAFA"/>
<path d="M342.813 192.139L322.142 80.6696H288.086L308.757 192.139H342.813Z" fill="white"/>
<path d="M375.329 154.317C375.446 154.308 375.556 154.253 375.633 154.164C375.71 154.075 375.75 153.959 375.742 153.842V85.0344C375.742 84.9247 375.699 84.8195 375.621 84.7419C375.544 84.6644 375.438 84.6208 375.329 84.6208C375.219 84.6208 375.114 84.6644 375.036 84.7419C374.959 84.8195 374.915 84.9247 374.915 85.0344V153.842C374.908 153.959 374.947 154.075 375.025 154.164C375.102 154.253 375.211 154.308 375.329 154.317Z" fill="#F0F0F0"/>
<path d="M301.435 192.139L280.773 80.6696H267.494L288.156 192.139H301.435Z" fill="white"/>
<path d="M254.628 192.13V80.6696H253.889V192.13H254.628Z" fill="#E6E6E6"/>
<path opacity="0.4" d="M246.734 89.2496H380.222L380.758 83.2832H247.262L246.734 89.2496Z" fill="#E6E6E6"/>
<path opacity="0.4" d="M246.734 96.1224H380.222L380.758 90.1472H247.262L246.734 96.1224Z" fill="#E6E6E6"/>
<path opacity="0.4" d="M246.734 102.986H380.222L380.758 97.02H247.262L246.734 102.986Z" fill="#E6E6E6"/>
<path opacity="0.4" d="M246.734 109.859H380.222L380.758 103.884H247.262L246.734 109.859Z" fill="#E6E6E6"/>
<path opacity="0.4" d="M246.734 116.723H380.222L380.758 110.757H247.262L246.734 116.723Z" fill="#E6E6E6"/>
<path opacity="0.4" d="M246.734 123.596H380.222L380.758 117.621H247.262L246.734 123.596Z" fill="#E6E6E6"/>
<path opacity="0.4" d="M246.734 130.46H380.222L380.758 124.494H247.262L246.734 130.46Z" fill="#E6E6E6"/>
<path opacity="0.4" d="M246.734 137.333H380.222L380.758 131.358H247.262L246.734 137.333Z" fill="#E6E6E6"/>
<path opacity="0.4" d="M246.734 144.197H380.222L380.758 138.23H247.262L246.734 144.197Z" fill="#E6E6E6"/>
<path d="M72.8816 188.329H100.575V156.552H72.8816V188.329Z" fill="#E6E6E6"/>
<path d="M69.7488 188.329H99.6424V156.552H69.7488V188.329Z" fill="#F5F5F5"/>
<path d="M97.1432 185.821V159.051H72.2568V185.821H97.1432Z" fill="white"/>
<path d="M91.1064 172.929V171.952C91.1064 171.11 90.9404 170.276 90.6179 169.498C90.2954 168.721 89.8227 168.014 89.2269 167.419C88.6311 166.824 87.9238 166.352 87.1455 166.031C86.3673 165.709 85.5332 165.544 84.6912 165.546C82.9982 165.555 81.3778 166.234 80.1839 167.434C78.9901 168.635 78.32 170.259 78.32 171.952V172.929C78.32 174.628 78.995 176.257 80.1964 177.459C81.3978 178.66 83.0273 179.335 84.7264 179.335C86.4209 179.328 88.0436 178.65 89.2394 177.45C90.4351 176.249 91.1064 174.623 91.1064 172.929Z" fill="#F5F5F5"/>
<path d="M141.953 176.942H179.978V133.135H141.953V176.942Z" fill="#E6E6E6"/>
<path d="M137.641 176.942H178.842V133.135H137.641V176.942Z" fill="#F5F5F5"/>
<path d="M175.393 173.501V136.602H141.09V173.501H175.393Z" fill="white"/>
<path d="M159.676 148.201L166.188 159.482C166.333 159.734 166.41 160.019 166.41 160.31C166.41 160.601 166.333 160.886 166.188 161.138C166.042 161.389 165.833 161.598 165.581 161.743C165.33 161.888 165.044 161.964 164.754 161.964H151.73C151.439 161.964 151.154 161.888 150.902 161.743C150.65 161.598 150.441 161.389 150.296 161.138C150.15 160.886 150.074 160.601 150.074 160.31C150.073 160.019 150.15 159.734 150.295 159.482L156.807 148.201C156.954 147.951 157.164 147.743 157.415 147.599C157.667 147.455 157.952 147.379 158.242 147.379C158.532 147.379 158.816 147.455 159.068 147.599C159.32 147.743 159.529 147.951 159.676 148.201Z" fill="#F5F5F5"/>
<path d="M79.2176 336.503H100.118L100.118 270.609H79.2176V336.503Z" fill="#E6E6E6"/>
<path d="M83.1864 336.512H79.2176V325.222H87.3488L83.1864 336.512Z" fill="#F0F0F0"/>
<path d="M157.318 336.503H178.218V270.609H157.318V336.503Z" fill="#E6E6E6"/>
<path d="M79.2264 329.578H160.785V270.609H79.2264L79.2264 329.578Z" fill="#F0F0F0"/>
<path d="M82.2976 274.314V315.471H118.668V274.314H82.2976Z" fill="#E6E6E6"/>
<path d="M121.334 274.314V315.471H157.705V274.314H121.334Z" fill="#E6E6E6"/>
<path d="M135.925 277.473H143.114C144.659 277.477 146.187 277.168 147.608 276.563C149.029 275.957 150.311 275.069 151.378 273.953H127.618C128.689 275.076 129.978 275.967 131.407 276.573C132.836 277.178 134.373 277.484 135.925 277.473Z" fill="#F0F0F0"/>
<path d="M96.5184 277.473H103.717C105.261 277.477 106.79 277.167 108.21 276.562C109.631 275.957 110.913 275.069 111.98 273.953H88.22C89.2905 275.074 90.5787 275.964 92.0057 276.57C93.4327 277.175 94.9683 277.482 96.5184 277.473Z" fill="#F0F0F0"/>
<path d="M156.816 336.512H160.785V325.222H152.654L156.816 336.512Z" fill="#F0F0F0"/>
<path d="M135.3 261.782C135.298 262.679 135.563 263.556 136.059 264.303C136.556 265.049 137.264 265.631 138.092 265.976C138.92 266.32 139.831 266.411 140.711 266.237C141.59 266.063 142.399 265.632 143.033 264.999C143.668 264.365 144.101 263.558 144.276 262.679C144.452 261.799 144.363 260.887 144.02 260.059C143.677 259.23 143.096 258.522 142.351 258.024C141.605 257.525 140.729 257.259 139.832 257.259C138.632 257.261 137.482 257.738 136.633 258.586C135.784 259.434 135.305 260.583 135.3 261.782Z" fill="#E0E0E0"/>
<path d="M141.882 263.366C144.38 263.366 146.406 261.341 146.406 258.843C146.406 256.345 144.38 254.32 141.882 254.32C139.384 254.32 137.359 256.345 137.359 258.843C137.359 261.341 139.384 263.366 141.882 263.366Z" fill="#E0E0E0"/>
<path d="M112.64 262.513C112.64 263.407 112.905 264.282 113.402 265.026C113.899 265.77 114.606 266.349 115.432 266.692C116.259 267.034 117.168 267.124 118.046 266.949C118.923 266.775 119.729 266.344 120.362 265.711C120.994 265.079 121.425 264.273 121.6 263.395C121.774 262.518 121.684 261.608 121.342 260.782C121 259.955 120.42 259.249 119.676 258.752C118.932 258.255 118.058 257.99 117.163 257.99C115.964 257.99 114.813 258.466 113.965 259.314C113.117 260.163 112.64 261.313 112.64 262.513Z" fill="#E0E0E0"/>
<path d="M147.937 265.135C151.004 265.135 153.49 262.649 153.49 259.582C153.49 256.516 151.004 254.03 147.937 254.03C144.87 254.03 142.384 256.516 142.384 259.582C142.384 262.649 144.87 265.135 147.937 265.135Z" fill="#E0E0E0"/>
<path d="M131.384 254.47C131.382 255.568 131.706 256.643 132.316 257.557C132.925 258.471 133.791 259.184 134.806 259.606C135.82 260.028 136.937 260.139 138.015 259.926C139.092 259.712 140.083 259.184 140.86 258.408C141.638 257.632 142.167 256.642 142.382 255.565C142.597 254.488 142.488 253.371 142.068 252.355C141.648 251.34 140.936 250.473 140.023 249.862C139.109 249.251 138.035 248.926 136.937 248.926C135.466 248.928 134.057 249.512 133.016 250.551C131.975 251.59 131.389 252.999 131.384 254.47Z" fill="#E0E0E0"/>
<path d="M122.584 255.886C122.582 256.985 122.906 258.059 123.516 258.974C124.125 259.888 124.991 260.601 126.006 261.023C127.02 261.444 128.137 261.556 129.215 261.342C130.292 261.129 131.283 260.601 132.06 259.825C132.838 259.049 133.367 258.059 133.582 256.982C133.797 255.904 133.688 254.787 133.268 253.772C132.848 252.757 132.136 251.889 131.223 251.279C130.309 250.668 129.235 250.342 128.137 250.342C126.666 250.342 125.255 250.926 124.213 251.966C123.172 253.005 122.586 254.415 122.584 255.886Z" fill="#E0E0E0"/>
<path d="M126.306 260.366C126.306 261.41 126.616 262.431 127.196 263.299C127.776 264.167 128.601 264.844 129.566 265.244C130.531 265.643 131.592 265.748 132.616 265.544C133.641 265.34 134.582 264.838 135.32 264.099C136.058 263.361 136.561 262.42 136.765 261.396C136.969 260.371 136.864 259.31 136.464 258.345C136.065 257.38 135.388 256.556 134.52 255.975C133.652 255.395 132.631 255.086 131.586 255.086C130.186 255.086 128.843 255.642 127.853 256.632C126.863 257.622 126.306 258.965 126.306 260.366Z" fill="#E0E0E0"/>
<path d="M117.119 260.022C117.119 261.15 117.454 262.253 118.08 263.19C118.707 264.128 119.597 264.859 120.639 265.291C121.681 265.722 122.828 265.835 123.934 265.615C125.04 265.395 126.056 264.852 126.854 264.055C127.651 263.257 128.194 262.241 128.414 261.135C128.634 260.029 128.522 258.882 128.09 257.84C127.658 256.798 126.927 255.908 125.99 255.281C125.052 254.654 123.949 254.32 122.822 254.32C121.309 254.32 119.859 254.921 118.789 255.99C117.72 257.06 117.119 258.51 117.119 260.022Z" fill="#E0E0E0"/>
<path d="M156.79 261.782C156.79 261.782 156.174 270.582 132.352 270.582C108.53 270.582 107.906 261.782 107.906 261.782H156.79Z" fill="#F0F0F0"/>
<path d="M220 376.253C314.233 376.253 390.623 371.793 390.623 366.291C390.623 360.79 314.233 356.33 220 356.33C125.767 356.33 49.3768 360.79 49.3768 366.291C49.3768 371.793 125.767 376.253 220 376.253Z" fill="#F5F5F5"/>
<path d="M270.838 105.512C270.122 103.147 269.173 100.86 268.004 98.6832L269.764 92.9192L258.386 81.532L252.622 83.292C250.445 82.1232 248.157 81.174 245.793 80.4584L242.959 75.1784H226.855L224.03 80.4584C221.665 81.1723 219.377 82.1216 217.202 83.292L211.438 81.532L200.05 92.9192L201.81 98.6832C200.648 100.862 199.702 103.149 198.986 105.512L193.662 108.346V124.45L198.986 127.274C199.7 129.638 200.647 131.925 201.81 134.103L200.05 139.867L211.438 151.254L217.202 149.494C219.379 150.658 221.667 151.604 224.03 152.319L226.855 157.599H242.959L245.793 152.319C248.156 151.603 250.443 150.657 252.622 149.494L258.386 151.254L269.773 139.867L268.013 134.103C269.183 131.927 270.132 129.64 270.846 127.274L276.17 124.45V108.346L270.838 105.512ZM234.907 139.269C230.382 139.269 225.958 137.927 222.196 135.413C218.433 132.899 215.501 129.325 213.769 125.145C212.037 120.964 211.584 116.363 212.467 111.925C213.35 107.487 215.529 103.41 218.729 100.21C221.928 97.0104 226.005 94.8313 230.444 93.9484C234.882 93.0656 239.482 93.5187 243.663 95.2504C247.844 96.9822 251.417 99.9148 253.931 103.677C256.445 107.44 257.787 111.864 257.787 116.389C257.787 122.457 255.377 128.277 251.086 132.567C246.795 136.858 240.975 139.269 234.907 139.269Z" fill="#C53F3F"/>
<path opacity="0.2" d="M270.838 105.512C270.122 103.147 269.173 100.86 268.004 98.6832L269.764 92.9192L258.386 81.532L252.622 83.292C250.445 82.1232 248.157 81.174 245.793 80.4584L242.959 75.1784H226.855L224.03 80.4584C221.665 81.1723 219.377 82.1216 217.202 83.292L211.438 81.532L200.05 92.9192L201.81 98.6832C200.648 100.862 199.702 103.149 198.986 105.512L193.662 108.346V124.45L198.986 127.274C199.7 129.638 200.647 131.925 201.81 134.103L200.05 139.867L211.438 151.254L217.202 149.494C219.379 150.658 221.667 151.604 224.03 152.319L226.855 157.599H242.959L245.793 152.319C248.156 151.603 250.443 150.657 252.622 149.494L258.386 151.254L269.773 139.867L268.013 134.103C269.183 131.927 270.132 129.64 270.846 127.274L276.17 124.45V108.346L270.838 105.512ZM234.907 139.269C230.382 139.269 225.958 137.927 222.196 135.413C218.433 132.899 215.501 129.325 213.769 125.145C212.037 120.964 211.584 116.363 212.467 111.925C213.35 107.487 215.529 103.41 218.729 100.21C221.928 97.0104 226.005 94.8313 230.444 93.9484C234.882 93.0656 239.482 93.5187 243.663 95.2504C247.844 96.9822 251.417 99.9148 253.931 103.677C256.445 107.44 257.787 111.864 257.787 116.389C257.787 122.457 255.377 128.277 251.086 132.567C246.795 136.858 240.975 139.269 234.907 139.269Z" fill="white"/>
<path d="M234.907 108.812C233.407 108.812 231.94 109.257 230.693 110.09C229.445 110.924 228.473 112.109 227.899 113.495C227.325 114.881 227.175 116.406 227.467 117.877C227.76 119.349 228.482 120.701 229.543 121.761C230.604 122.822 231.956 123.545 233.427 123.837C234.899 124.13 236.424 123.98 237.81 123.406C239.196 122.832 240.381 121.859 241.214 120.612C242.048 119.365 242.493 117.898 242.493 116.398C242.493 114.386 241.694 112.456 240.271 111.034C238.848 109.611 236.919 108.812 234.907 108.812Z" fill="#C53F3F"/>
<path d="M385.44 131.058C384.417 127.678 383.064 124.406 381.401 121.29L383.918 113.054L367.664 96.8L359.418 99.3256C356.314 97.6429 353.043 96.2864 349.659 95.2776L345.62 87.6744H322.608L318.56 95.2776C315.177 96.2895 311.907 97.646 308.801 99.3256L300.564 96.8L284.293 113.071L286.81 121.308C285.139 124.42 283.785 127.693 282.77 131.076L275.158 135.115V158.127L282.762 162.175C283.775 165.556 285.128 168.826 286.801 171.934L284.284 180.162L300.555 196.434L308.792 193.917C311.901 195.591 315.175 196.942 318.56 197.947L322.608 205.559H345.62L349.659 197.956C353.041 196.94 356.31 195.583 359.418 193.908L367.664 196.425L383.935 180.154L381.418 171.917C383.077 168.804 384.425 165.535 385.44 162.158L393.043 158.11V135.098L385.44 131.058ZM334.11 188.32C325.858 188.32 317.792 185.873 310.931 181.289C304.07 176.704 298.722 170.189 295.565 162.565C292.407 154.942 291.581 146.553 293.19 138.46C294.8 130.367 298.774 122.933 304.609 117.098C310.443 111.263 317.877 107.29 325.97 105.68C334.063 104.07 342.452 104.896 350.075 108.054C357.699 111.212 364.215 116.559 368.799 123.42C373.383 130.281 375.83 138.348 375.83 146.599C375.83 152.078 374.751 157.503 372.655 162.565C370.558 167.627 367.485 172.226 363.611 176.1C359.737 179.974 355.137 183.048 350.075 185.144C345.014 187.241 339.588 188.32 334.11 188.32Z" fill="#C53F3F"/>
<path d="M334.11 110.73C327.014 110.732 320.078 112.838 314.179 116.781C308.281 120.724 303.683 126.328 300.969 132.884C298.255 139.44 297.546 146.654 298.931 153.613C300.317 160.572 303.734 166.964 308.752 171.98C313.77 176.997 320.163 180.413 327.122 181.797C334.082 183.181 341.295 182.469 347.85 179.754C354.405 177.038 360.008 172.439 363.95 166.54C367.892 160.64 369.996 153.704 369.996 146.608C369.984 137.095 366.199 127.975 359.472 121.248C352.744 114.522 343.623 110.74 334.11 110.73ZM334.11 177.707C327.958 177.709 321.945 175.886 316.829 172.47C311.714 169.054 307.727 164.198 305.371 158.515C303.016 152.833 302.399 146.579 303.598 140.546C304.797 134.513 307.758 128.971 312.107 124.621C316.456 120.27 321.998 117.308 328.03 116.107C334.063 114.906 340.317 115.522 346 117.875C351.683 120.229 356.541 124.215 359.958 129.329C363.376 134.444 365.2 140.457 365.2 146.608C365.191 154.852 361.912 162.755 356.084 168.585C350.256 174.415 342.353 177.696 334.11 177.707Z" fill="#C53F3F"/>
<path opacity="0.2" d="M334.11 110.73C327.014 110.732 320.078 112.838 314.179 116.781C308.281 120.724 303.683 126.328 300.969 132.884C298.255 139.44 297.546 146.654 298.931 153.613C300.317 160.572 303.734 166.964 308.752 171.98C313.77 176.997 320.163 180.413 327.122 181.797C334.082 183.181 341.295 182.469 347.85 179.754C354.405 177.038 360.008 172.439 363.95 166.54C367.892 160.64 369.996 153.704 369.996 146.608C369.984 137.095 366.199 127.975 359.472 121.248C352.744 114.522 343.623 110.74 334.11 110.73ZM334.11 177.707C327.958 177.709 321.945 175.886 316.829 172.47C311.714 169.054 307.727 164.198 305.371 158.515C303.016 152.833 302.399 146.579 303.598 140.546C304.797 134.513 307.758 128.971 312.107 124.621C316.456 120.27 321.998 117.308 328.03 116.107C334.063 114.906 340.317 115.522 346 117.875C351.683 120.229 356.541 124.215 359.958 129.329C363.376 134.444 365.2 140.457 365.2 146.608C365.191 154.852 361.912 162.755 356.084 168.585C350.256 174.415 342.353 177.696 334.11 177.707Z" fill="black"/>
<path d="M251.68 207.821C251.447 207.821 251.223 207.728 251.058 207.563C250.893 207.398 250.8 207.174 250.8 206.941V205.181C250.8 204.947 250.893 204.724 251.058 204.559C251.223 204.394 251.447 204.301 251.68 204.301C251.913 204.301 252.137 204.394 252.302 204.559C252.467 204.724 252.56 204.947 252.56 205.181V206.941C252.56 207.174 252.467 207.398 252.302 207.563C252.137 207.728 251.913 207.821 251.68 207.821Z" fill="#C53F3F"/>
<path d="M237.978 185.082C237.171 184.562 236.539 183.811 236.166 182.926C236.073 182.711 235.9 182.542 235.683 182.455C235.466 182.368 235.223 182.371 235.008 182.464C234.794 182.556 234.624 182.73 234.538 182.947C234.451 183.164 234.454 183.406 234.546 183.621C235.063 184.823 235.924 185.845 237.019 186.56C237.161 186.652 237.326 186.7 237.494 186.701C237.685 186.702 237.871 186.642 238.024 186.529C238.177 186.415 238.29 186.255 238.344 186.073C238.399 185.89 238.393 185.695 238.327 185.516C238.261 185.338 238.138 185.185 237.978 185.082Z" fill="#C53F3F"/>
<path d="M234.907 174.09C235.141 174.09 235.364 173.998 235.529 173.833C235.694 173.668 235.787 173.444 235.787 173.21V169.84C235.787 169.607 235.694 169.383 235.529 169.218C235.364 169.053 235.141 168.96 234.907 168.96C234.674 168.96 234.45 169.053 234.285 169.218C234.12 169.383 234.027 169.607 234.027 169.84V173.21C234.027 173.444 234.12 173.668 234.285 173.833C234.45 173.998 234.674 174.09 234.907 174.09Z" fill="#C53F3F"/>
<path d="M244.068 185.856H240.689C240.455 185.856 240.232 185.949 240.067 186.114C239.902 186.279 239.809 186.503 239.809 186.736C239.809 186.969 239.902 187.193 240.067 187.358C240.232 187.523 240.455 187.616 240.689 187.616H244.068C244.301 187.616 244.525 187.523 244.69 187.358C244.855 187.193 244.948 186.969 244.948 186.736C244.948 186.503 244.855 186.279 244.69 186.114C244.525 185.949 244.301 185.856 244.068 185.856Z" fill="#C53F3F"/>
<path d="M235.787 179.96V176.59C235.787 176.356 235.694 176.132 235.529 175.967C235.364 175.802 235.141 175.71 234.907 175.71C234.674 175.71 234.45 175.802 234.285 175.967C234.12 176.132 234.027 176.356 234.027 176.59V179.96C234.027 180.193 234.12 180.417 234.285 180.582C234.45 180.747 234.674 180.84 234.907 180.84C235.141 180.84 235.364 180.747 235.529 180.582C235.694 180.417 235.787 180.193 235.787 179.96Z" fill="#C53F3F"/>
<path d="M252.507 191.576C252.477 191.345 252.356 191.136 252.171 190.994C251.986 190.852 251.753 190.789 251.522 190.819C251.407 190.838 251.297 190.88 251.199 190.942C251.1 191.004 251.015 191.084 250.948 191.179C250.881 191.274 250.833 191.381 250.808 191.495C250.783 191.608 250.78 191.726 250.8 191.84C250.828 192.044 250.843 192.25 250.844 192.456V195.096C250.844 195.329 250.937 195.553 251.102 195.718C251.267 195.883 251.491 195.976 251.724 195.976C251.957 195.976 252.181 195.883 252.346 195.718C252.511 195.553 252.604 195.329 252.604 195.096V192.456C252.591 192.161 252.559 191.867 252.507 191.576Z" fill="#C53F3F"/>
<path d="M251.68 197.551C251.447 197.551 251.223 197.644 251.058 197.809C250.893 197.974 250.8 198.198 250.8 198.431V201.81C250.8 202.044 250.893 202.268 251.058 202.433C251.223 202.598 251.447 202.69 251.68 202.69C251.913 202.69 252.137 202.598 252.302 202.433C252.467 202.268 252.56 202.044 252.56 201.81V198.431C252.56 198.198 252.467 197.974 252.302 197.809C252.137 197.644 251.913 197.551 251.68 197.551Z" fill="#C53F3F"/>
<path d="M250.914 188.082C250.053 187.098 248.915 186.396 247.65 186.067C247.538 186.038 247.421 186.032 247.306 186.048C247.192 186.064 247.081 186.103 246.982 186.162C246.882 186.22 246.795 186.298 246.725 186.391C246.656 186.483 246.605 186.589 246.576 186.701C246.547 186.813 246.541 186.93 246.557 187.044C246.573 187.159 246.612 187.269 246.67 187.369C246.729 187.469 246.807 187.556 246.9 187.625C246.992 187.695 247.098 187.746 247.21 187.774C248.134 188.013 248.966 188.525 249.594 189.244C249.677 189.338 249.778 189.413 249.892 189.465C250.006 189.516 250.129 189.543 250.254 189.543C250.424 189.543 250.589 189.494 250.731 189.402C250.873 189.31 250.986 189.18 251.055 189.026C251.125 188.871 251.149 188.7 251.124 188.533C251.099 188.366 251.026 188.209 250.914 188.082Z" fill="#C53F3F"/>
<path d="M234.907 167.306C234.674 167.306 234.45 167.213 234.285 167.048C234.12 166.883 234.027 166.659 234.027 166.426V164.666C234.027 164.432 234.12 164.208 234.285 164.043C234.45 163.878 234.674 163.786 234.907 163.786C235.141 163.786 235.364 163.878 235.529 164.043C235.694 164.208 235.787 164.432 235.787 164.666V166.426C235.787 166.659 235.694 166.883 235.529 167.048C235.364 167.213 235.141 167.306 234.907 167.306Z" fill="#C53F3F"/>
<path d="M293.366 252.129H89.6104V255.394H293.366V252.129Z" fill="#C53F3F"/>
<path d="M293.366 255.394H337.577V252.129H293.366V255.394Z" fill="#C53F3F"/>
<path opacity="0.2" d="M293.366 255.394H337.577V252.129H293.366V255.394Z" fill="black"/>
<path d="M322.81 258.887H104.377L97.0728 255.394H330.114L322.81 258.887Z" fill="#C53F3F"/>
<path opacity="0.6" d="M322.81 258.887H104.377L97.0728 255.394H330.114L322.81 258.887Z" fill="white"/>
<path d="M110.977 258.887V363.026H113.775L117.295 258.887H110.977Z" fill="#C53F3F"/>
<path d="M144.012 258.887V363.026H146.81L150.33 258.887H144.012Z" fill="#C53F3F"/>
<path d="M322.81 258.887V363.026H320.021L316.492 258.887H322.81Z" fill="#C53F3F"/>
<path d="M289.784 258.887V363.026H286.986L283.466 258.887H289.784Z" fill="#C53F3F"/>
<path d="M223.291 212.599L214.095 250.061L213.84 252.129H277.27L277.534 250.061L286.722 212.599H223.291Z" fill="#C53F3F"/>
<path opacity="0.3" d="M223.291 212.599L214.095 250.061L213.84 252.129H277.27L277.534 250.061L286.722 212.599H223.291Z" fill="black"/>
<path d="M284.777 212.599H221.338L212.15 250.061H275.581L284.777 212.599Z" fill="#C53F3F"/>
<path d="M274.234 248.345L282.594 214.315H222.684L214.333 248.345H274.234Z" fill="white"/>
<path d="M259.054 250.061L258.79 252.129H188.945L189.2 250.061H259.054Z" fill="#C53F3F"/>
<path opacity="0.6" d="M259.054 250.061L258.79 252.129H188.945L189.2 250.061H259.054Z" fill="white"/>
<path d="M127.107 245.318C127.063 243.977 126.538 242.697 125.629 241.712C124.719 240.726 123.485 240.101 122.153 239.95V238.938C122.152 238.879 122.139 238.821 122.115 238.768C122.091 238.714 122.057 238.666 122.015 238.626C121.972 238.586 121.922 238.554 121.867 238.534C121.812 238.513 121.754 238.504 121.695 238.506H112.191C112.132 238.504 112.073 238.513 112.018 238.534C111.963 238.554 111.912 238.585 111.869 238.625C111.825 238.665 111.79 238.714 111.766 238.767C111.741 238.821 111.727 238.879 111.725 238.938V252.138H122.153V250.694C123.487 250.545 124.723 249.918 125.633 248.931C126.544 247.943 127.067 246.66 127.107 245.318ZM122.153 248.987V241.657C123.032 241.786 123.836 242.228 124.417 242.901C124.998 243.574 125.317 244.433 125.317 245.322C125.317 246.211 124.998 247.07 124.417 247.743C123.836 248.416 123.032 248.858 122.153 248.987Z" fill="#C53F3F"/>
<path d="M304.973 252.129H313.808L311.194 232.778H304.973V252.129Z" fill="#263238"/>
<path d="M292.019 252.129H308.757L311.863 229.478H295.134L292.019 252.129Z" fill="#C53F3F"/>
<path opacity="0.3" d="M292.019 252.129H308.757L311.863 229.478H295.134L292.019 252.129Z" fill="black"/>
<path d="M289.784 252.129H307.199L310.314 229.478H292.899L289.784 252.129Z" fill="#C53F3F"/>
<path opacity="0.4" d="M305.659 250.342L308.282 231.264H294.439L291.817 250.342H305.659Z" fill="white"/>
<path d="M173.835 218.689L173.114 219.463L172.339 220.343C171.82 220.942 171.301 221.549 170.808 222.174C169.822 223.423 168.872 224.699 167.983 226.01C166.215 228.546 164.739 231.274 163.583 234.142C163.045 235.505 162.627 236.912 162.334 238.348C162.193 239.158 162.105 239.51 162.061 239.853C162.012 240.126 162.012 240.406 162.061 240.68C162.208 241.11 162.44 241.507 162.742 241.847C163.044 242.187 163.411 242.463 163.821 242.66C164.415 243.026 165.039 243.341 165.686 243.602C166.027 243.742 166.379 243.874 166.742 243.998C167.077 244.121 167.499 244.244 167.763 244.35V249.198C167.147 249.286 166.698 249.357 166.179 249.392C165.66 249.427 165.158 249.436 164.639 249.392C163.572 249.37 162.51 249.235 161.471 248.987C160.301 248.712 159.179 248.261 158.145 247.65C156.928 246.938 155.883 245.967 155.082 244.807C154.258 243.572 153.712 242.173 153.481 240.706C153.422 240.363 153.384 240.016 153.366 239.668C153.349 239.334 153.349 238.999 153.366 238.665V238.172C153.356 238.04 153.356 237.908 153.366 237.776L153.437 237.002C153.662 234.99 154.086 233.006 154.704 231.079C155.896 227.377 157.574 223.85 159.694 220.59C160.712 218.989 161.82 217.446 163.011 215.97C163.601 215.23 164.208 214.509 164.842 213.796C165.15 213.435 165.475 213.083 165.81 212.731C166.144 212.379 166.452 212.071 166.91 211.631L173.835 218.689Z" fill="#B55B52"/>
<path d="M166.012 244.244L170.113 241.234L172.445 249.665C172.445 249.665 168.81 251.011 166.038 249.198L166.012 244.244Z" fill="#B55B52"/>
<path d="M175.806 239.21L177.408 246.268L172.445 249.665L170.113 241.234L175.806 239.21Z" fill="#B55B52"/>
<path d="M201.74 186.34C201.555 186.859 201.687 187.378 202.03 187.493C202.374 187.607 202.796 187.29 202.972 186.771C203.148 186.252 203.025 185.724 202.69 185.61C202.356 185.495 201.925 185.812 201.74 186.34Z" fill="#263238"/>
<path d="M201.643 187.361C201.712 189.173 202.029 190.967 202.585 192.694C202.142 192.821 201.676 192.85 201.22 192.78C200.765 192.71 200.33 192.543 199.945 192.289L201.643 187.361Z" fill="#A02724"/>
<path d="M200.895 182.802C200.961 182.825 201.032 182.825 201.098 182.802C201.484 182.674 201.895 182.638 202.297 182.7C202.7 182.761 203.082 182.917 203.412 183.154C203.478 183.202 203.56 183.224 203.641 183.214C203.722 183.205 203.797 183.165 203.85 183.103C203.904 183.041 203.931 182.961 203.928 182.879C203.926 182.797 203.892 182.72 203.834 182.662C203.421 182.354 202.941 182.149 202.432 182.065C201.924 181.981 201.403 182.019 200.913 182.178C200.849 182.2 200.793 182.241 200.753 182.296C200.714 182.352 200.693 182.418 200.693 182.486C200.693 182.553 200.714 182.62 200.753 182.675C200.793 182.73 200.849 182.772 200.913 182.794L200.895 182.802Z" fill="#263238"/>
<path d="M182.442 188.258C183.427 193.266 184.404 202.444 180.902 205.788C180.902 205.788 182.274 210.866 191.585 210.866C201.819 210.866 196.478 205.788 196.478 205.788C190.89 204.45 191.03 200.306 192.007 196.416L182.442 188.258Z" fill="#B55B52"/>
<path d="M179.564 207.53C178.825 205.92 178.024 204.081 179.687 203.509C181.526 202.875 191.594 202.224 195.061 203.412C195.519 203.537 195.948 203.752 196.322 204.044C196.697 204.337 197.009 204.701 197.241 205.115C197.473 205.53 197.62 205.987 197.673 206.459C197.726 206.931 197.685 207.409 197.551 207.865L179.564 207.53Z" fill="#263238"/>
<path d="M214.72 216.119C216.876 220 219.19 223.995 221.531 227.832C223.872 231.669 226.327 235.488 228.95 238.973C229.601 239.853 230.278 240.689 230.947 241.525C231.282 241.956 231.634 242.308 231.977 242.704L232.487 243.285L232.619 243.434L232.681 243.505L232.742 243.584C233.152 243.98 233.645 244.281 234.186 244.464C235.017 244.753 235.875 244.963 236.746 245.089C241.024 245.521 245.337 245.47 249.603 244.939L250.941 249.603C249.753 250.131 248.644 250.483 247.465 250.923C246.286 251.363 245.124 251.654 243.945 251.953C241.445 252.58 238.883 252.922 236.306 252.974C234.86 252.997 233.416 252.852 232.003 252.542C230.269 252.198 228.633 251.47 227.216 250.413L226.626 249.929L226.486 249.806L226.398 249.718L226.23 249.55L225.544 248.873C225.095 248.424 224.602 247.993 224.198 247.518C223.318 246.594 222.49 245.67 221.725 244.719C218.65 241.004 215.814 237.098 213.233 233.024C211.948 231.018 210.71 228.991 209.519 226.943C208.322 224.875 207.17 222.851 206.052 220.669L214.72 216.119Z" fill="#B55B52"/>
<path d="M168.643 207.337C162.219 208.806 154.862 226.31 154.862 226.31L167.754 235.11C170.961 230.511 173.806 225.672 176.264 220.634C180.074 212.661 175.208 205.832 168.643 207.337Z" fill="#C53F3F"/>
<path opacity="0.2" d="M173.237 218.495L167.147 234.722L167.746 235.145C167.746 235.145 170.386 231.44 173.237 226.442V218.495Z" fill="black"/>
<path d="M207.011 207.68C207.011 207.68 214.298 215.917 207.416 266.869H170.782C170.535 261.246 174.064 233.825 168.643 207.328C172.692 206.548 176.786 206.031 180.902 205.779C186.089 205.475 191.29 205.475 196.478 205.779C200.033 206.137 203.555 206.773 207.011 207.68Z" fill="#C53F3F"/>
<path opacity="0.2" d="M202.937 222.42C203.893 228.203 206.392 233.621 210.17 238.102C210.32 234.819 210.382 231.871 210.373 229.24L202.937 222.42Z" fill="black"/>
<path d="M199.76 213.242C198.88 219.727 211.64 236.289 211.64 236.289L224.479 227.489C224.479 227.489 220.915 218.363 214.922 212.379C208.094 205.515 200.763 206.184 199.76 213.242Z" fill="#C53F3F"/>
<path d="M248.16 244.983L253.387 242.836L258.764 246.902C258.764 246.902 253.634 251.442 248.97 249.674L248.16 244.983Z" fill="#B55B52"/>
<path d="M256.837 242.625L260.779 245.441L258.738 246.902L253.361 242.836L256.837 242.625Z" fill="#B55B52"/>
<path d="M184.721 179.177C182.89 185.724 181.482 189.464 183.577 193.873C186.718 200.517 195.65 200.332 199.417 194.471C202.796 189.191 205.225 179.37 199.839 174.645C198.657 173.595 197.225 172.864 195.681 172.523C194.137 172.181 192.531 172.241 191.016 172.695C189.501 173.149 188.128 173.983 187.026 175.117C185.924 176.252 185.13 177.649 184.721 179.177Z" fill="#B55B52"/>
<path d="M198.66 179.247C196.02 186.762 192.914 195.017 185.328 193.45C180.435 192.438 180.048 184.562 178.288 180.981C176.73 177.839 176.827 171.521 180.048 171.442C178.605 169.347 185.9 161.682 190.881 165.73C192.157 163.97 201.353 158.787 208.164 167.015C214.579 174.794 211.438 181.28 198.66 179.247Z" fill="#263238"/>
<path d="M192.72 184.052C192.544 185.731 192.921 187.421 193.794 188.866C194.964 190.749 196.68 190.027 197.314 188.1C197.877 186.34 197.938 183.304 196.31 182.081C194.682 180.858 192.966 182.028 192.72 184.052Z" fill="#B55B52"/>
<path d="M248.934 358.054C249.814 358.054 250.694 357.931 250.95 357.535C251.022 357.431 251.061 357.306 251.061 357.179C251.061 357.051 251.022 356.927 250.95 356.822C250.833 356.637 250.65 356.502 250.439 356.444C249.295 356.136 246.919 357.5 246.805 357.562C246.775 357.577 246.751 357.601 246.736 357.631C246.722 357.662 246.718 357.696 246.726 357.729C246.731 357.76 246.746 357.789 246.768 357.813C246.79 357.836 246.818 357.853 246.849 357.861C247.537 357.986 248.235 358.051 248.934 358.054ZM250.026 356.726C250.128 356.711 250.231 356.711 250.334 356.726C250.4 356.738 250.463 356.765 250.518 356.804C250.572 356.844 250.618 356.895 250.65 356.954C250.765 357.157 250.73 357.254 250.65 357.306C250.334 357.755 248.6 357.764 247.324 357.579C248.161 357.122 249.078 356.832 250.026 356.726Z" fill="#C53F3F"/>
<path d="M246.866 357.861H246.937C247.764 357.491 249.401 356.013 249.269 355.221C249.269 355.036 249.11 354.816 248.67 354.763C248.512 354.749 248.353 354.767 248.202 354.816C248.051 354.864 247.911 354.942 247.79 355.045C246.91 355.758 246.734 357.606 246.726 357.685C246.722 357.713 246.726 357.741 246.737 357.768C246.748 357.794 246.765 357.817 246.787 357.834C246.811 357.849 246.838 357.858 246.866 357.861ZM248.538 355.089H248.635C248.926 355.089 248.943 355.238 248.952 355.274C249.031 355.74 247.914 356.902 247.069 357.403C247.139 356.628 247.446 355.894 247.949 355.3C248.113 355.16 248.323 355.085 248.538 355.089Z" fill="#C53F3F"/>
<path d="M238.902 357.702H245.749L247.306 341.836H240.46L238.902 357.702Z" fill="#B55B52"/>
<path d="M246.136 356.91H238.665C238.527 356.911 238.394 356.959 238.287 357.045C238.18 357.131 238.105 357.251 238.075 357.386L236.72 363.44C236.685 363.588 236.684 363.741 236.718 363.889C236.751 364.037 236.818 364.175 236.913 364.293C237.008 364.411 237.129 364.506 237.267 364.57C237.404 364.634 237.554 364.666 237.706 364.663C240.398 364.619 244.297 364.461 247.685 364.461C251.654 364.461 255.077 364.672 259.723 364.672C262.539 364.672 263.322 361.83 262.143 361.574C256.784 360.404 252.41 360.281 247.782 357.421C247.291 357.102 246.721 356.926 246.136 356.91Z" fill="#263238"/>
<path opacity="0.2" d="M247.298 341.845L246.506 350.02H239.65L240.451 341.845H247.298Z" fill="black"/>
<path d="M221.487 358.046C221.778 358.084 222.073 358.064 222.355 357.986C222.638 357.909 222.902 357.777 223.133 357.597C223.214 357.486 223.257 357.352 223.257 357.214C223.257 357.076 223.214 356.942 223.133 356.831C223.081 356.735 223.008 356.651 222.92 356.585C222.832 356.52 222.73 356.475 222.622 356.453C221.619 356.215 219.727 357.509 219.648 357.562C219.623 357.581 219.603 357.607 219.591 357.636C219.579 357.665 219.574 357.697 219.578 357.729C219.584 357.759 219.599 357.787 219.621 357.809C219.643 357.831 219.67 357.846 219.701 357.852C220.288 357.98 220.887 358.045 221.487 358.046ZM222.367 356.743C222.431 356.734 222.497 356.734 222.561 356.743C222.624 356.752 222.684 356.776 222.736 356.813C222.788 356.85 222.83 356.898 222.86 356.954C223.01 357.227 222.922 357.333 222.86 357.377C222.57 357.755 221.17 357.764 220.141 357.597C220.803 357.149 221.558 356.857 222.35 356.743H222.367Z" fill="#C53F3F"/>
<path d="M219.745 357.861H219.815C220.528 357.474 221.901 355.978 221.751 355.221C221.729 355.1 221.664 354.99 221.569 354.911C221.475 354.833 221.355 354.79 221.232 354.79C221.109 354.775 220.985 354.786 220.866 354.822C220.748 354.858 220.639 354.919 220.546 355.001C219.754 355.652 219.586 357.641 219.578 357.711C219.577 357.741 219.584 357.77 219.598 357.796C219.612 357.822 219.632 357.845 219.657 357.861C219.685 357.87 219.716 357.87 219.745 357.861ZM221.126 355.089H221.197C221.408 355.089 221.426 355.212 221.434 355.256C221.522 355.705 220.642 356.84 219.938 357.377C219.986 356.596 220.268 355.847 220.748 355.23C220.853 355.139 220.987 355.089 221.126 355.089Z" fill="#C53F3F"/>
<path d="M211.895 357.702H218.742L222.182 341.836H215.336L211.895 357.702Z" fill="#B55B52"/>
<path d="M219.226 356.91H211.534C211.398 356.911 211.266 356.959 211.16 357.046C211.055 357.132 210.982 357.252 210.954 357.386L209.598 363.44C209.567 363.589 209.569 363.742 209.605 363.89C209.641 364.038 209.709 364.176 209.806 364.293C209.902 364.411 210.024 364.505 210.161 364.569C210.299 364.633 210.45 364.665 210.602 364.663C213.286 364.619 214.597 364.461 217.976 364.461C220.062 364.461 222.728 364.672 225.606 364.672C228.483 364.672 228.853 361.83 227.674 361.574C222.394 360.422 222.033 358.829 220.343 357.306C220.032 357.042 219.634 356.901 219.226 356.91Z" fill="#263238"/>
<g opacity="0.2">
<path d="M215.336 341.845H222.182L220.405 350.02H213.558L215.336 341.845Z" fill="black"/>
</g>
<path d="M207.416 266.878C207.416 266.878 258.72 272.307 258.157 298.478C257.793 314.915 254.633 331.169 248.811 346.544H238.638C238.638 346.544 239.158 329.938 238.814 303.142C238.709 295.108 222.49 292.459 206.642 291.526C199.93 291.104 193.47 288.815 187.991 284.917C182.511 281.019 178.23 275.667 175.63 269.465L174.548 266.878H207.416Z" fill="#263238"/>
<path d="M251.302 343.816C251.354 343.816 250.642 348.63 250.642 348.63H236.562L236.174 344.335L251.302 343.816Z" fill="#C53F3F"/>
<path d="M196.434 266.878C196.434 266.878 233.622 279.198 234.564 294.474C236.324 322.582 222.499 346.544 222.499 346.544H212.23C212.23 346.544 216.128 334.664 217.51 309.197C219.27 277.209 159.579 309.144 170.764 266.878H196.434Z" fill="#263238"/>
<path d="M225.606 343.816C225.658 343.816 224.312 348.63 224.312 348.63H210.232L210.487 344.335L225.606 343.816Z" fill="#C53F3F"/>
<path d="M223.256 293.823H166.056C166.056 292.091 166.744 290.431 167.968 289.206C169.193 287.982 170.854 287.294 172.586 287.294H216.726C218.458 287.294 220.119 287.982 221.344 289.206C222.568 290.431 223.256 292.091 223.256 293.823Z" fill="#C53F3F"/>
<path d="M168.705 293.814L160.081 366.115H161.929L172.867 293.814H168.705Z" fill="#C53F3F"/>
<path opacity="0.4" d="M168.705 293.814L160.081 366.115H161.929L172.867 293.814H168.705Z" fill="black"/>
<path d="M180.242 293.814L180.074 366.115H181.914L184.404 293.814H180.242Z" fill="#C53F3F"/>
<path opacity="0.4" d="M180.242 293.814L180.074 366.115H181.914L184.404 293.814H180.242Z" fill="black"/>
<path d="M220.607 293.814L229.231 366.115H227.383L216.454 293.814H220.607Z" fill="#C53F3F"/>
<path opacity="0.4" d="M220.607 293.814L229.231 366.115H227.383L216.454 293.814H220.607Z" fill="black"/>
<path d="M209.07 293.814L209.238 366.115H207.398L204.908 293.814H209.07Z" fill="#C53F3F"/>
<path opacity="0.4" d="M209.07 293.814L209.238 366.115H207.398L204.908 293.814H209.07Z" fill="black"/>
</svg>
