<svg width="149" height="169" viewBox="0 0 149 169" fill="none" xmlns="http://www.w3.org/2000/svg">
<g opacity="0.6">
<path fill-rule="evenodd" clip-rule="evenodd" d="M53.1395 126.402L53.1395 70.0807L37.1802 70.0807L37.1802 126.402L53.1395 126.402ZM45.7558 61.5552C51.0756 61.5552 54.3895 57.243 54.3895 51.8446C54.3023 46.3474 51.0756 42.134 45.843 42.134C40.6105 42.134 37.2093 46.3474 37.2093 51.8446C37.2093 57.243 40.5233 61.5552 45.6395 61.5552L45.7558 61.5552Z" fill="white"/>
<path fill-rule="evenodd" clip-rule="evenodd" d="M93.1977 68.7969C84.7384 68.7969 81.1047 74.1953 78.7791 77.9478L78.7791 70.1136L62.7907 70.1136L62.7907 126.402L78.7791 126.402L78.7791 94.3406C78.7791 92.6947 78.8954 91.0489 79.3314 89.8968C80.4942 86.6051 83.1105 83.2146 87.5291 83.2146C93.314 83.2146 95.6395 88.2509 95.6395 95.6244L95.6395 126.402L111.628 126.402L111.628 93.5177C111.628 76.6312 103.721 68.7969 93.1977 68.7969Z" fill="white"/>
<path d="M121.279 21.067L28.1396 21.067C23.0524 21.067 18.6047 25.2146 18.6047 30.9092L18.6047 136.606C18.6047 142.334 23.0524 147.436 28.1396 147.436L121.25 147.436C126.366 147.436 130.204 142.301 130.204 136.606L130.204 30.9092C130.233 25.2146 126.366 21.067 121.279 21.067ZM120.349 136.935C120.029 136.935 29.3314 136.935 28.8082 136.935C28.2849 136.935 27.907 136.475 27.907 135.915C27.907 135.355 27.907 32.6209 27.907 32.2588C27.907 31.8968 28.1977 31.6005 28.4884 31.6005C28.7791 31.6005 120.058 31.6005 120.349 31.6005C120.64 31.6005 120.93 31.9297 120.93 32.2588C120.93 39.9285 120.93 135.915 120.93 136.277C120.93 136.573 120.669 136.935 120.349 136.935Z" fill="white"/>
</g>
</svg>
